<svg width="84" height="66" viewBox="0 0 84 66" fill="none" xmlns="http://www.w3.org/2000/svg">
<mask id="mask0_1786_8665" style="mask-type:alpha" maskUnits="userSpaceOnUse" x="0" y="0" width="85" height="66">
<rect x="0.197021" width="84.8028" height="66" fill="#D9D9D9"/>
</mask>
<g mask="url(#mask0_1786_8665)">
<ellipse cx="7.37251" cy="7.1172" rx="1.95699" ry="1.94118" fill="#BEADFF"/>
<ellipse cx="7.37251" cy="17.47" rx="1.95699" ry="1.94118" fill="#BEADFF"/>
<ellipse cx="7.37251" cy="27.823" rx="1.95699" ry="1.94118" fill="#BEADFF"/>
<ellipse cx="7.37251" cy="38.176" rx="1.95699" ry="1.94118" fill="#BEADFF"/>
<ellipse cx="7.37251" cy="48.5288" rx="1.95699" ry="1.94118" fill="#BEADFF"/>
<ellipse cx="7.37251" cy="58.8819" rx="1.95699" ry="1.94118" fill="#BEADFF"/>
<ellipse cx="17.8098" cy="7.1172" rx="1.95699" ry="1.94118" fill="#BEADFF"/>
<ellipse cx="17.8098" cy="17.47" rx="1.95699" ry="1.94118" fill="#BEADFF"/>
<ellipse cx="17.8098" cy="27.823" rx="1.95699" ry="1.94118" fill="#BEADFF"/>
<ellipse cx="17.8098" cy="38.176" rx="1.95699" ry="1.94118" fill="#BEADFF"/>
<ellipse cx="17.8098" cy="48.5288" rx="1.95699" ry="1.94118" fill="#BEADFF"/>
<ellipse cx="17.8098" cy="58.8819" rx="1.95699" ry="1.94118" fill="#BEADFF"/>
<ellipse cx="28.2473" cy="7.1172" rx="1.95699" ry="1.94118" fill="#BEADFF"/>
<ellipse cx="28.2473" cy="17.47" rx="1.95699" ry="1.94118" fill="#BEADFF"/>
<ellipse cx="28.2473" cy="27.823" rx="1.95699" ry="1.94118" fill="#BEADFF"/>
<ellipse cx="28.2473" cy="38.176" rx="1.95699" ry="1.94118" fill="#BEADFF"/>
<ellipse cx="28.2473" cy="48.5288" rx="1.95699" ry="1.94118" fill="#BEADFF"/>
<ellipse cx="28.2473" cy="58.8819" rx="1.95699" ry="1.94118" fill="#BEADFF"/>
<ellipse cx="38.6845" cy="7.1172" rx="1.95699" ry="1.94118" fill="#BEADFF"/>
<ellipse cx="38.6845" cy="17.47" rx="1.95699" ry="1.94118" fill="#BEADFF"/>
<ellipse cx="38.6845" cy="27.823" rx="1.95699" ry="1.94118" fill="#BEADFF"/>
<ellipse cx="38.6845" cy="38.176" rx="1.95699" ry="1.94118" fill="#BEADFF"/>
<ellipse cx="38.6845" cy="48.5288" rx="1.95699" ry="1.94118" fill="#BEADFF"/>
<ellipse cx="38.6845" cy="58.8819" rx="1.95699" ry="1.94118" fill="#BEADFF"/>
<ellipse cx="49.1215" cy="7.1172" rx="1.95699" ry="1.94118" fill="#BEADFF"/>
<ellipse cx="49.1215" cy="17.47" rx="1.95699" ry="1.94118" fill="#BEADFF"/>
<ellipse cx="49.1215" cy="27.823" rx="1.95699" ry="1.94118" fill="#BEADFF"/>
<ellipse cx="49.1215" cy="38.176" rx="1.95699" ry="1.94118" fill="#BEADFF"/>
<ellipse cx="49.1215" cy="48.5288" rx="1.95699" ry="1.94118" fill="#BEADFF"/>
<ellipse cx="49.1215" cy="58.8819" rx="1.95699" ry="1.94118" fill="#BEADFF"/>
<ellipse cx="59.5588" cy="7.1172" rx="1.95699" ry="1.94118" fill="#BEADFF"/>
<ellipse cx="59.5588" cy="17.47" rx="1.95699" ry="1.94118" fill="#BEADFF"/>
<ellipse cx="59.5588" cy="27.823" rx="1.95699" ry="1.94118" fill="#BEADFF"/>
<ellipse cx="59.5588" cy="38.176" rx="1.95699" ry="1.94118" fill="#BEADFF"/>
<ellipse cx="59.5588" cy="48.5288" rx="1.95699" ry="1.94118" fill="#BEADFF"/>
<ellipse cx="59.5588" cy="58.8819" rx="1.95699" ry="1.94118" fill="#BEADFF"/>
<ellipse cx="69.996" cy="7.1172" rx="1.95699" ry="1.94118" fill="#BEADFF"/>
<ellipse cx="69.996" cy="17.47" rx="1.95699" ry="1.94118" fill="#BEADFF"/>
<ellipse cx="69.996" cy="27.823" rx="1.95699" ry="1.94118" fill="#BEADFF"/>
<ellipse cx="69.996" cy="38.176" rx="1.95699" ry="1.94118" fill="#BEADFF"/>
<ellipse cx="69.996" cy="48.5288" rx="1.95699" ry="1.94118" fill="#BEADFF"/>
<ellipse cx="69.996" cy="58.8819" rx="1.95699" ry="1.94118" fill="#BEADFF"/>
<ellipse cx="80.4335" cy="7.1172" rx="1.95699" ry="1.94118" fill="#BEADFF"/>
<ellipse cx="80.4335" cy="17.47" rx="1.95699" ry="1.94118" fill="#BEADFF"/>
<ellipse cx="80.4335" cy="27.823" rx="1.95699" ry="1.94118" fill="#BEADFF"/>
<ellipse cx="80.4335" cy="38.176" rx="1.95699" ry="1.94118" fill="#BEADFF"/>
<ellipse cx="80.4335" cy="48.5288" rx="1.95699" ry="1.94118" fill="#BEADFF"/>
<ellipse cx="80.4335" cy="58.8819" rx="1.95699" ry="1.94118" fill="#BEADFF"/>
</g>
</svg>
