<svg width="248" height="195" viewBox="0 0 248 195" fill="none" xmlns="http://www.w3.org/2000/svg">
<mask id="mask0_20493_39260" style="mask-type:alpha" maskUnits="userSpaceOnUse" x="0" y="0" width="248" height="195">
<rect width="248" height="195" fill="#D9D9D9"/>
</mask>
<g mask="url(#mask0_20493_39260)">
<circle cx="11" cy="11" r="3" fill="#BEADFF"/>
<circle cx="11" cy="27" r="3" fill="#BEADFF"/>
<circle cx="11" cy="43" r="3" fill="#BEADFF"/>
<circle cx="11" cy="59" r="3" fill="#BEADFF"/>
<circle cx="11" cy="75" r="3" fill="#BEADFF"/>
<circle cx="11" cy="91" r="3" fill="#BEADFF"/>
<circle cx="11" cy="107" r="3" fill="#BEADFF"/>
<circle cx="11" cy="123" r="3" fill="#BEADFF"/>
<circle cx="11" cy="139" r="3" fill="#BEADFF"/>
<circle cx="11" cy="155" r="3" fill="#BEADFF"/>
<circle cx="11" cy="171" r="3" fill="#BEADFF"/>
<circle cx="11" cy="187" r="3" fill="#BEADFF"/>
<circle cx="27" cy="11" r="3" fill="#BEADFF"/>
<circle cx="27" cy="27" r="3" fill="#BEADFF"/>
<circle cx="27" cy="43" r="3" fill="#BEADFF"/>
<circle cx="27" cy="59" r="3" fill="#BEADFF"/>
<circle cx="27" cy="75" r="3" fill="#BEADFF"/>
<circle cx="27" cy="91" r="3" fill="#BEADFF"/>
<circle cx="27" cy="107" r="3" fill="#BEADFF"/>
<circle cx="27" cy="123" r="3" fill="#BEADFF"/>
<circle cx="27" cy="139" r="3" fill="#BEADFF"/>
<circle cx="27" cy="155" r="3" fill="#BEADFF"/>
<circle cx="27" cy="171" r="3" fill="#BEADFF"/>
<circle cx="27" cy="187" r="3" fill="#BEADFF"/>
<circle cx="43" cy="11" r="3" fill="#BEADFF"/>
<circle cx="43" cy="27" r="3" fill="#BEADFF"/>
<circle cx="43" cy="43" r="3" fill="#BEADFF"/>
<circle cx="43" cy="59" r="3" fill="#BEADFF"/>
<circle cx="43" cy="75" r="3" fill="#BEADFF"/>
<circle cx="43" cy="91" r="3" fill="#BEADFF"/>
<circle cx="43" cy="107" r="3" fill="#BEADFF"/>
<circle cx="43" cy="123" r="3" fill="#BEADFF"/>
<circle cx="43" cy="139" r="3" fill="#BEADFF"/>
<circle cx="43" cy="155" r="3" fill="#BEADFF"/>
<circle cx="43" cy="171" r="3" fill="#BEADFF"/>
<circle cx="43" cy="187" r="3" fill="#BEADFF"/>
<circle cx="59" cy="11" r="3" fill="#BEADFF"/>
<circle cx="59" cy="27" r="3" fill="#BEADFF"/>
<circle cx="59" cy="43" r="3" fill="#BEADFF"/>
<circle cx="59" cy="59" r="3" fill="#BEADFF"/>
<circle cx="59" cy="75" r="3" fill="#BEADFF"/>
<circle cx="59" cy="91" r="3" fill="#BEADFF"/>
<circle cx="59" cy="107" r="3" fill="#BEADFF"/>
<circle cx="59" cy="123" r="3" fill="#BEADFF"/>
<circle cx="59" cy="139" r="3" fill="#BEADFF"/>
<circle cx="59" cy="155" r="3" fill="#BEADFF"/>
<circle cx="59" cy="171" r="3" fill="#BEADFF"/>
<circle cx="59" cy="187" r="3" fill="#BEADFF"/>
<circle cx="75" cy="11" r="3" fill="#BEADFF"/>
<circle cx="75" cy="27" r="3" fill="#BEADFF"/>
<circle cx="75" cy="43" r="3" fill="#BEADFF"/>
<circle cx="75" cy="59" r="3" fill="#BEADFF"/>
<circle cx="75" cy="75" r="3" fill="#BEADFF"/>
<circle cx="75" cy="91" r="3" fill="#BEADFF"/>
<circle cx="75" cy="107" r="3" fill="#BEADFF"/>
<circle cx="75" cy="123" r="3" fill="#BEADFF"/>
<circle cx="75" cy="139" r="3" fill="#BEADFF"/>
<circle cx="75" cy="155" r="3" fill="#BEADFF"/>
<circle cx="75" cy="171" r="3" fill="#BEADFF"/>
<circle cx="75" cy="187" r="3" fill="#BEADFF"/>
<circle cx="91" cy="11" r="3" fill="#BEADFF"/>
<circle cx="91" cy="27" r="3" fill="#BEADFF"/>
<circle cx="91" cy="43" r="3" fill="#BEADFF"/>
<circle cx="91" cy="59" r="3" fill="#BEADFF"/>
<circle cx="91" cy="75" r="3" fill="#BEADFF"/>
<circle cx="91" cy="91" r="3" fill="#BEADFF"/>
<circle cx="91" cy="107" r="3" fill="#BEADFF"/>
<circle cx="91" cy="123" r="3" fill="#BEADFF"/>
<circle cx="91" cy="139" r="3" fill="#BEADFF"/>
<circle cx="91" cy="155" r="3" fill="#BEADFF"/>
<circle cx="91" cy="171" r="3" fill="#BEADFF"/>
<circle cx="91" cy="187" r="3" fill="#BEADFF"/>
<circle cx="107" cy="11" r="3" fill="#BEADFF"/>
<circle cx="107" cy="27" r="3" fill="#BEADFF"/>
<circle cx="107" cy="43" r="3" fill="#BEADFF"/>
<circle cx="107" cy="59" r="3" fill="#BEADFF"/>
<circle cx="107" cy="75" r="3" fill="#BEADFF"/>
<circle cx="107" cy="91" r="3" fill="#BEADFF"/>
<circle cx="107" cy="107" r="3" fill="#BEADFF"/>
<circle cx="107" cy="123" r="3" fill="#BEADFF"/>
<circle cx="107" cy="139" r="3" fill="#BEADFF"/>
<circle cx="107" cy="155" r="3" fill="#BEADFF"/>
<circle cx="107" cy="171" r="3" fill="#BEADFF"/>
<circle cx="107" cy="187" r="3" fill="#BEADFF"/>
<circle cx="123" cy="11" r="3" fill="#BEADFF"/>
<circle cx="123" cy="27" r="3" fill="#BEADFF"/>
<circle cx="123" cy="43" r="3" fill="#BEADFF"/>
<circle cx="123" cy="59" r="3" fill="#BEADFF"/>
<circle cx="123" cy="75" r="3" fill="#BEADFF"/>
<circle cx="123" cy="91" r="3" fill="#BEADFF"/>
<circle cx="123" cy="107" r="3" fill="#BEADFF"/>
<circle cx="123" cy="123" r="3" fill="#BEADFF"/>
<circle cx="123" cy="139" r="3" fill="#BEADFF"/>
<circle cx="123" cy="155" r="3" fill="#BEADFF"/>
<circle cx="123" cy="171" r="3" fill="#BEADFF"/>
<circle cx="123" cy="187" r="3" fill="#BEADFF"/>
<circle cx="139" cy="11" r="3" fill="#BEADFF"/>
<circle cx="139" cy="27" r="3" fill="#BEADFF"/>
<circle cx="139" cy="43" r="3" fill="#BEADFF"/>
<circle cx="139" cy="59" r="3" fill="#BEADFF"/>
<circle cx="139" cy="75" r="3" fill="#BEADFF"/>
<circle cx="139" cy="91" r="3" fill="#BEADFF"/>
<circle cx="139" cy="107" r="3" fill="#BEADFF"/>
<circle cx="139" cy="123" r="3" fill="#BEADFF"/>
<circle cx="139" cy="139" r="3" fill="#BEADFF"/>
<circle cx="139" cy="155" r="3" fill="#BEADFF"/>
<circle cx="139" cy="171" r="3" fill="#BEADFF"/>
<circle cx="139" cy="187" r="3" fill="#BEADFF"/>
<circle cx="155" cy="11" r="3" fill="#BEADFF"/>
<circle cx="155" cy="27" r="3" fill="#BEADFF"/>
<circle cx="155" cy="43" r="3" fill="#BEADFF"/>
<circle cx="155" cy="59" r="3" fill="#BEADFF"/>
<circle cx="155" cy="75" r="3" fill="#BEADFF"/>
<circle cx="155" cy="91" r="3" fill="#BEADFF"/>
<circle cx="155" cy="107" r="3" fill="#BEADFF"/>
<circle cx="155" cy="123" r="3" fill="#BEADFF"/>
<circle cx="155" cy="139" r="3" fill="#BEADFF"/>
<circle cx="155" cy="155" r="3" fill="#BEADFF"/>
<circle cx="155" cy="171" r="3" fill="#BEADFF"/>
<circle cx="155" cy="187" r="3" fill="#BEADFF"/>
<circle cx="171" cy="11" r="3" fill="#BEADFF"/>
<circle cx="171" cy="27" r="3" fill="#BEADFF"/>
<circle cx="171" cy="43" r="3" fill="#BEADFF"/>
<circle cx="171" cy="59" r="3" fill="#BEADFF"/>
<circle cx="171" cy="75" r="3" fill="#BEADFF"/>
<circle cx="171" cy="91" r="3" fill="#BEADFF"/>
<circle cx="171" cy="107" r="3" fill="#BEADFF"/>
<circle cx="171" cy="123" r="3" fill="#BEADFF"/>
<circle cx="171" cy="139" r="3" fill="#BEADFF"/>
<circle cx="171" cy="155" r="3" fill="#BEADFF"/>
<circle cx="171" cy="171" r="3" fill="#BEADFF"/>
<circle cx="171" cy="187" r="3" fill="#BEADFF"/>
<circle cx="187" cy="11" r="3" fill="#BEADFF"/>
<circle cx="187" cy="27" r="3" fill="#BEADFF"/>
<circle cx="187" cy="43" r="3" fill="#BEADFF"/>
<circle cx="187" cy="59" r="3" fill="#BEADFF"/>
<circle cx="187" cy="75" r="3" fill="#BEADFF"/>
<circle cx="187" cy="91" r="3" fill="#BEADFF"/>
<circle cx="187" cy="107" r="3" fill="#BEADFF"/>
<circle cx="187" cy="123" r="3" fill="#BEADFF"/>
<circle cx="187" cy="139" r="3" fill="#BEADFF"/>
<circle cx="187" cy="155" r="3" fill="#BEADFF"/>
<circle cx="187" cy="171" r="3" fill="#BEADFF"/>
<circle cx="187" cy="187" r="3" fill="#BEADFF"/>
<circle cx="203" cy="11" r="3" fill="#BEADFF"/>
<circle cx="203" cy="27" r="3" fill="#BEADFF"/>
<circle cx="203" cy="43" r="3" fill="#BEADFF"/>
<circle cx="203" cy="59" r="3" fill="#BEADFF"/>
<circle cx="203" cy="75" r="3" fill="#BEADFF"/>
<circle cx="203" cy="91" r="3" fill="#BEADFF"/>
<circle cx="203" cy="107" r="3" fill="#BEADFF"/>
<circle cx="203" cy="123" r="3" fill="#BEADFF"/>
<circle cx="203" cy="139" r="3" fill="#BEADFF"/>
<circle cx="203" cy="155" r="3" fill="#BEADFF"/>
<circle cx="203" cy="171" r="3" fill="#BEADFF"/>
<circle cx="203" cy="187" r="3" fill="#BEADFF"/>
<circle cx="219" cy="11" r="3" fill="#BEADFF"/>
<circle cx="219" cy="27" r="3" fill="#BEADFF"/>
<circle cx="219" cy="43" r="3" fill="#BEADFF"/>
<circle cx="219" cy="59" r="3" fill="#BEADFF"/>
<circle cx="219" cy="75" r="3" fill="#BEADFF"/>
<circle cx="219" cy="91" r="3" fill="#BEADFF"/>
<circle cx="219" cy="107" r="3" fill="#BEADFF"/>
<circle cx="219" cy="123" r="3" fill="#BEADFF"/>
<circle cx="219" cy="139" r="3" fill="#BEADFF"/>
<circle cx="219" cy="155" r="3" fill="#BEADFF"/>
<circle cx="219" cy="171" r="3" fill="#BEADFF"/>
<circle cx="219" cy="187" r="3" fill="#BEADFF"/>
<circle cx="235" cy="11" r="3" fill="#BEADFF"/>
<circle cx="235" cy="27" r="3" fill="#BEADFF"/>
<circle cx="235" cy="43" r="3" fill="#BEADFF"/>
<circle cx="235" cy="59" r="3" fill="#BEADFF"/>
<circle cx="235" cy="75" r="3" fill="#BEADFF"/>
<circle cx="235" cy="91" r="3" fill="#BEADFF"/>
<circle cx="235" cy="107" r="3" fill="#BEADFF"/>
<circle cx="235" cy="123" r="3" fill="#BEADFF"/>
<circle cx="235" cy="139" r="3" fill="#BEADFF"/>
<circle cx="235" cy="155" r="3" fill="#BEADFF"/>
<circle cx="235" cy="171" r="3" fill="#BEADFF"/>
<circle cx="235" cy="187" r="3" fill="#BEADFF"/>
</g>
</svg>
