<svg width="20" height="20" viewBox="0 0 20 20" fill="none" xmlns="http://www.w3.org/2000/svg">
<path d="M10.2032 3.3335C10.6482 3.336 11.7615 3.34683 12.9448 3.39433L13.3648 3.41266C14.5557 3.4685 15.7457 3.56516 16.3365 3.72933C17.124 3.951 17.7423 4.596 17.9515 5.41433C18.2848 6.71433 18.3265 9.24933 18.3315 9.8635L18.3323 9.99016V10.1352C18.3265 10.7493 18.2848 13.2852 17.9515 14.5843C17.7398 15.4052 17.1207 16.051 16.3365 16.2693C15.7457 16.4335 14.5557 16.5302 13.3648 16.586L12.9448 16.6052C11.7615 16.6518 10.6482 16.6635 10.2032 16.6652L10.0073 16.666H9.79484C8.85317 16.6602 4.91484 16.6177 3.6615 16.2693C2.87484 16.0477 2.25567 15.4027 2.0465 14.5843C1.71317 13.2843 1.6715 10.7493 1.6665 10.1352V9.8635C1.6715 9.24933 1.71317 6.7135 2.0465 5.41433C2.25817 4.5935 2.87734 3.94766 3.66234 3.73016C4.91484 3.381 8.854 3.3385 9.79567 3.3335H10.2032ZM8.33234 7.0835V12.9168L13.3323 10.0002L8.33234 7.0835Z" fill="white"/>
</svg>
